<svg xmlns="http://www.w3.org/2000/svg" width="512" height="512" viewBox="0 0 512 512" role="img" aria-label="The Nursing Exam Journal">
  <defs>
    <linearGradient id="bg" x1="0" y1="0" x2="1" y2="1">
      <stop offset="0" stop-color="#6366f1"/>
      <stop offset="1" stop-color="#4f46e5"/>
    </linearGradient>
  </defs>
  <rect width="512" height="512" rx="112" fill="url(#bg)"/>
  <!-- open book / journal, centred within the maskable safe zone -->
  <g fill="none" stroke="#ffffff" stroke-width="20" stroke-linejoin="round" stroke-linecap="round">
    <path d="M256 160c-34-26-78-34-118-30-12 1-22 11-22 23v176c0 13 11 23 24 22 38-4 80 4 116 28" fill="#ffffff" fill-opacity="0.10"/>
    <path d="M256 160c34-26 78-34 118-30 12 1 22 11 22 23v176c0 13-11 23-24 22-38-4-80 4-116 28" fill="#ffffff" fill-opacity="0.10"/>
    <line x1="256" y1="160" x2="256" y2="364"/>
  </g>
  <!-- pink bookmark ribbon -->
  <path d="M300 128h44v96l-22-18-22 18z" fill="#ec4899"/>
</svg>
